<?xml version="1.0" encoding="UTF-8"?>
<svg width="20px" height="20px" viewBox="0 0 20 20" version="1.1" xmlns="http://www.w3.org/2000/svg" xmlns:xlink="http://www.w3.org/1999/xlink">
    <!-- Generator: Sketch 48.2 (47327) - http://www.bohemiancoding.com/sketch -->
    <title>if_66_Instagram_106164insta</title>
    <desc>Created with Sketch.</desc>
    <defs></defs>
    <g id="homepage" stroke="none" stroke-width="1" fill="none" fill-rule="evenodd" transform="translate(-774.000000, -6453.000000)">
        <g id="Group-6" transform="translate(125.000000, 6453.000000)" fill="#909090" fill-rule="nonzero">
            <g id="Group-3" transform="translate(528.000000, 0.000000)">
                <g id="if_66_Instagram_106164" transform="translate(123.000000, 2.000000)">
                    <path d="M15.9375,0 L1.0625,0 C0.475203125,0 0,0.44725 0,1 L0,15 C0,15.55275 0.475203125,16 1.0625,16 L15.9375,16 C16.5247969,16 17,15.55275 17,15 L17,1 C17,0.44725 16.5247969,0 15.9375,0 Z M6.375,8 C6.375,8 6.54307422,6 8.5,6 C10.4569258,6 10.625,8 10.625,8 C10.625,8 10.6862266,10 8.5,10 C6.31377344,10 6.375,8 6.375,8 Z M14.875,14 L2.125,14 L2.125,7 L4.25,7 L4.40041016,7 C4.31225586,7.32128125 4.25,7.65234375 4.25,8 C4.25,10.209 6.1529375,12 8.5,12 C10.8470625,12 12.75,10.209 12.75,8 C12.75,7.65234375 12.6877441,7.32128125 12.5995566,7 L12.75,7 L14.875,7 L14.875,14 Z M14.875,5 L11.6875,5 L11.6875,2 L14.875,2 L14.875,5 Z" id="Shape"></path>
                </g>
            </g>
        </g>
    </g>
</svg>