<?xml version="1.0" encoding="UTF-8"?>
<svg width="20px" height="20px" viewBox="0 0 20 20" version="1.1" xmlns="http://www.w3.org/2000/svg" xmlns:xlink="http://www.w3.org/1999/xlink">
    <!-- Generator: Sketch 48.2 (47327) - http://www.bohemiancoding.com/sketch -->
    <title>1371750401_06-facebook</title>
    <desc>Created with Sketch.</desc>
    <defs></defs>
    <g id="homepage" stroke="none" stroke-width="1" fill="none" fill-rule="evenodd" transform="translate(-653.000000, -6454.000000)">
        <g id="Group-6" transform="translate(125.000000, 6453.000000)" fill="#909090" fill-rule="nonzero">
            <g id="Group-3" transform="translate(528.000000, 0.000000)">
                <g id="1371750401_06-facebook" transform="translate(6.000000, 3.000000)">
                    <path d="M7,4.85706893 L4.61604597,4.85706893 L4.61604597,3.3002484 C4.61604597,2.71558684 5.00521205,2.57927965 5.27931219,2.57927965 C5.55278867,2.57927965 6.96164469,2.57927965 6.96164469,2.57927965 L6.96164469,0.00900434693 L4.6447345,0 C2.0727459,0 1.48743763,1.91699441 1.48743763,3.14375906 L1.48743763,4.85706893 L0,4.85706893 L0,7.5055889 L1.48743763,7.5055889 C1.48743763,10.9045746 1.48743763,15 1.48743763,15 L4.61604597,15 C4.61604597,15 4.61604597,10.8642103 4.61604597,7.5055889 L6.72714718,7.5055889 L7,4.85706893 Z" id="Shape"></path>
                </g>
            </g>
        </g>
    </g>
</svg>